HIERARCHY
ROOT Hips
{
	OFFSET 0.000000 0.000000 0.000000
	CHANNELS 6 Xposition Yposition Zposition Xrotation Yrotation Zrotation
	JOINT Chest
	{
		OFFSET 0.000000 0.009282 11.569106
		CHANNELS 3 Xrotation Yrotation Zrotation
		JOINT Chest2
		{
			OFFSET 0.000000 -0.016863 9.269641
			CHANNELS 3 Xrotation Yrotation Zrotation
			JOINT Chest3
			{
				OFFSET 0.000000 -0.000000 8.374491
				CHANNELS 3 Xrotation Yrotation Zrotation
				JOINT Chest4
				{
					OFFSET 0.000000 -0.000000 8.374493
					CHANNELS 3 Xrotation Yrotation Zrotation
					JOINT Neck
					{
						OFFSET 0.000000 -0.000001 12.152554
						CHANNELS 3 Xrotation Yrotation Zrotation
						JOINT Head
						{
							OFFSET 0.000000 -0.040100 7.802319
							CHANNELS 3 Xrotation Yrotation Zrotation
							End Site
							{
								OFFSET 0.000000 -0.020946 14.853096
							}
						}
					}
					JOINT RightCollar
					{
						OFFSET -2.894404 -0.000000 6.791374
						CHANNELS 3 Xrotation Yrotation Zrotation
						JOINT RightShoulder
						{
							OFFSET -13.574684 0.000000 0.000000
							CHANNELS 3 Xrotation Yrotation Zrotation
							JOINT RightElbow
							{
								OFFSET -23.923903 0.000000 0.000000
								CHANNELS 3 Xrotation Yrotation Zrotation
								JOINT RightWrist
								{
									OFFSET -19.846718 -0.012765 0.000000
									CHANNELS 3 Xrotation Yrotation Zrotation
									End Site
									{
										OFFSET -14.973145 0.000000 0.000000
									}
								}
							}
						}
					}
					JOINT LeftCollar
					{
						OFFSET 2.894404 -0.000000 6.791374
						CHANNELS 3 Xrotation Yrotation Zrotation
						JOINT LeftShoulder
						{
							OFFSET 13.574684 0.000000 0.000000
							CHANNELS 3 Xrotation Yrotation Zrotation
							JOINT LeftElbow
							{
								OFFSET 23.923903 0.000000 0.000000
								CHANNELS 3 Xrotation Yrotation Zrotation
								JOINT LeftWrist
								{
									OFFSET 19.846718 -0.012765 0.000000
									CHANNELS 3 Xrotation Yrotation Zrotation
									End Site
									{
										OFFSET 14.973145 0.000000 0.000000
									}
								}
							}
						}
					}
				}
			}
		}
	}
	JOINT RightHip
	{
		OFFSET -9.469263 -0.004642 0.045487
		CHANNELS 3 Xrotation Yrotation Zrotation
		JOINT RightKnee
		{
			OFFSET 0.000000 -0.002666 -40.478676
			CHANNELS 3 Xrotation Yrotation Zrotation
			JOINT RightAnkle
			{
				OFFSET 0.000000 -0.049110 -35.224068
				CHANNELS 3 Xrotation Yrotation Zrotation
				JOINT RightToe
				{
					OFFSET 0.000000 -12.539530 -6.151390
					CHANNELS 3 Xrotation Yrotation Zrotation
					End Site
					{
						OFFSET 0.000000 -5.044995 -1.291870
					}
				}
			}
		}
	}
	JOINT LeftHip
	{
		OFFSET 9.469263 -0.004642 0.045487
		CHANNELS 3 Xrotation Yrotation Zrotation
		JOINT LeftKnee
		{
			OFFSET 0.000000 -0.002666 -40.478676
			CHANNELS 3 Xrotation Yrotation Zrotation
			JOINT LeftAnkle
			{
				OFFSET 0.000000 -0.049110 -35.224068
				CHANNELS 3 Xrotation Yrotation Zrotation
				JOINT LeftToe
				{
					OFFSET 0.000000 -12.539530 -6.151390
					CHANNELS 3 Xrotation Yrotation Zrotation
					End Site
					{
						OFFSET 0.000000 -5.044995 -1.291870
					}
				}
			}
		}
	}
}
MOTION
Frames: 5
Frame Time: 0.016667
24.637865 -44.585144 81.490242 -0.909674 1.939005 -121.041033 5.174036 1.457283 1.500822 2.297728 0.757647 0.677761 2.297728 0.757647 0.677761 1.724114 0.565698 0.511170 20.420939 -0.444655 0.028057 1.738082 -0.821758 -0.082468 -5.910459 -9.965161 -0.006828 11.656856 -41.424653 -5.117196 70.409039 11.878694 60.401023 -55.361248 33.788376 83.346299 -5.659881 8.453556 -2.392059 0.472418 38.844983 11.818304 73.538065 7.642922 -62.087027 -17.430226 -27.216113 -77.981342 -9.926742 5.165417 -9.493468 57.250629 -17.325178 -8.447991 25.205326 -11.356210 16.070428 2.691020 -0.432267 -0.635625 -4.251510 9.962353 0.902614 10.991819 5.351606 24.566794 -8.932894 -10.490436 2.584653 -0.175782 -0.027860 -0.000052 
24.335957 -44.347599 81.608742 -0.819608 1.901523 -120.965177 5.122924 1.474622 1.512510 2.279745 0.714559 0.688277 2.279744 0.714559 0.688276 1.710594 0.533361 0.518873 20.404400 -0.475787 0.010370 1.707145 -0.873365 -0.124299 -5.929234 -9.927884 -0.011597 11.615737 -41.347295 -5.177240 70.410002 11.917306 60.545037 -55.324099 33.788611 83.301438 -5.678201 8.480476 -2.380793 0.506401 38.917663 11.834250 73.491811 7.632498 -61.985005 -17.491421 -27.219281 -77.913457 -10.169963 5.140778 -8.935405 56.670418 -16.849824 -9.304416 21.711812 -9.613827 14.827697 -4.980708 3.991407 -1.069507 -3.425095 9.932807 1.161611 9.941641 5.054811 24.507137 -8.642591 -10.407651 2.201008 -0.176589 -0.025312 0.005851 
24.063238 -44.095642 81.715637 -0.666927 1.807042 -120.896753 5.063745 1.421602 1.526826 2.257594 0.665106 0.696469 2.257596 0.665107 0.696467 1.693939 0.496266 0.524815 20.375122 -0.501192 -0.008014 1.652566 -0.914275 -0.165778 -5.941436 -9.890836 -0.012611 11.585556 -41.250340 -5.242440 70.396492 11.967637 60.714938 -55.281229 33.787163 83.247015 -5.699771 8.508102 -2.382594 0.554727 38.997802 11.869856 73.471402 7.570879 -61.910583 -17.588757 -27.267450 -77.828380 -10.333599 4.970698 -8.294350 55.668777 -16.205080 -9.951348 18.292869 -8.175823 13.599903 -10.069769 6.112065 -0.777310 -2.640675 9.795634 1.483466 8.917639 4.774826 24.382940 -8.354927 -10.322183 1.809027 -0.167399 -0.021344 0.007613 
23.804829 -43.846062 81.810043 -0.526042 1.700768 -120.843327 4.999687 1.379576 1.540940 2.233210 0.613457 0.702318 2.233211 0.613457 0.702320 1.675599 0.457534 0.528981 20.329855 -0.522553 -0.022189 1.568319 -0.949028 -0.198476 -5.962210 -9.860472 -0.019619 11.579717 -41.123732 -5.295765 70.377026 12.012482 60.908130 -55.218849 33.785561 83.173228 -5.695066 8.524202 -2.393184 0.576294 39.076731 11.923756 73.465173 7.544001 -61.844686 -17.647851 -27.373735 -77.737559 -10.505784 4.768196 -7.537092 54.473743 -15.633060 -10.314484 14.951788 -6.854439 12.321428 -13.658148 6.924879 -0.279881 -1.887770 9.647301 1.835029 7.899115 4.534158 24.134928 -8.076186 -10.279026 1.530355 -0.129255 -0.009078 0.002896 
23.548876 -43.596706 81.890289 -0.374925 1.563351 -120.811362 4.933164 1.318297 1.558647 2.203746 0.563358 0.708730 2.203746 0.563358 0.708733 1.653453 0.419970 0.533584 20.266773 -0.546099 -0.031731 1.450991 -0.989134 -0.223516 -5.990005 -9.834435 -0.037020 11.581134 -40.995147 -5.331982 70.364431 12.055589 61.089854 -55.129056 33.775135 83.087530 -5.702437 8.536547 -2.415626 0.588879 39.138155 12.009085 73.477488 7.559910 -61.784129 -17.663002 -27.456358 -77.633836 -10.721206 4.477902 -6.660375 53.159885 -15.035560 -10.517353 11.793930 -5.716071 11.242020 -16.120901 7.065598 0.155959 -1.194953 9.451822 2.225257 6.951312 4.355174 23.625425 -7.777326 -10.283017 1.522132 -0.111529 0.004354 -0.001221 
